<?xml version="1.0" encoding="iso-8859-1"?>
<!-- Generator: Adobe Illustrator 19.0.0, SVG Export Plug-In . SVG Version: 6.00 Build 0)  -->
<svg version="1.1" id="Layer_1" xmlns="http://www.w3.org/2000/svg" xmlns:xlink="http://www.w3.org/1999/xlink" x="0px" y="0px"
	 viewBox="0 0 512.002 512.002" style="enable-background:new 0 0 512.002 512.002;" xml:space="preserve">
<path style="fill:#CCCCCC;" d="M445.772,331.746c-0.124-2.423-0.682-4.82-1.582-7.076c-0.501-6.342-1.262-12.679-2.197-19.179
	c-0.495-3.44-1.039-6.936-1.75-10.361c0.155-2.07,0.311-4.14,0.441-6.212c1.103-17.535,3.04-34.977,4.243-52.492
	c0.85-6.332,2.183-13.044,0.433-19.094c-1.165-4.03-3.813-6.532-6.918-7.662c0.045-1.318,0.087-2.636,0.135-3.954
	c0.684-18.771,1.334-37.848,0.776-56.625c-0.399-13.403-0.032-27.211-1.173-40.746c0.472-2.414,0.948-4.828,1.433-7.238
	c2.895-14.399,6.182-29.265,6.084-44.012c-0.048-7.239-0.245-14.387-0.607-21.613c-0.307-6.122-0.468-13.239-3.375-18.825
	c-6.127-11.777-22.402-9.548-33.395-9.833c-6.018-0.157-11.987,0.798-18.028,0.857c-6.911,0.067-13.802-0.425-20.718-0.545
	c-13.259-0.23-26.361-1.694-39.663-1.25c-14.718,0.492-29.409,0.129-44.05,1.625c-12.546,1.281-25.277,1.226-37.813,2.318
	c-7.664,0.668-15.32,0.452-22.974,1.348c-7.504,0.879-15.337,2.505-22.901,2.334c-7.424-0.168-14.676-1.73-22.118-1.685
	c-3.694,0.021-7.404,0.083-11.097,0.182c-3.787,0.101-7.042-0.737-10.796-0.853c-4.018-0.125-6.161,2.415-6.544,5.346
	c-8.283-0.25-16.59-0.466-24.803-1.204c-4.615-0.414-9.001,0.662-13.579,0.769c-6.052,0.141-12.023-1.271-18.043-0.684
	c-4.268,0.417-8.143,0.399-12.508,0.182c-3.404-7.125-17.539-4.535-16.647,4.522c-0.323,4.993-0.073,10.024,0.268,15.052
	c-0.321,7.827-1.103,15.686-1.188,23.449c-0.047,4.257-0.09,8.52-0.126,12.785c-0.537,2.839-0.98,5.707-1.153,8.701
	c-0.442,7.604-0.717,15.215-0.612,22.833c0.22,16.039,1.875,31.935,3.054,47.915c0.885,11.994,2.059,23.965,3.053,35.949
	c0.088,8.244,0.221,16.485,0.576,24.722c-0.461,0.866-0.739,1.735-0.9,2.621c-0.027,0.058-0.064,0.107-0.091,0.165
	c-2.954,6.753-1.91,14.266-1.92,21.506c-0.014,9.165,0.027,18.264,0.9,27.395c0.828,8.664,1.27,17.347,1.723,26.037
	c0.215,4.121,0.55,8.191,0.98,12.285c-0.353,11.96-0.855,23.919-0.886,35.885c-0.052,18.822,2.185,37.665,3.501,56.421
	c0.399,5.678,0.643,11.372,0.953,17.058c-0.429,6.297-0.9,12.589-1.406,18.851c-1.016,12.557,2.413,25.619,0.381,38.035
	c-0.887,5.423-2.43,10.355-2.438,15.914c-0.008,5.946-0.874,13.07,2.7,18.225c3.618,5.22,9.377,6.73,15.135,3.969
	c0.528-0.253,4.698-2.318,3.426-2.248c1.658-0.206,3.744,0.192,5.368,0.071c4.892-0.367,9.511-2.116,14.393-2.438
	c10.024-0.661,19.856-1.74,29.836-3.001c3.858-0.489,7.725-0.711,11.596-0.867c0.481,0.035,0.972,0.049,1.486,0.016
	c8.443-0.557,16.905-0.183,25.342,0.107c8.393,0.288,16.66,2.082,25.099,1.724c4.059-0.172,7.888-0.745,11.673-1.526
	c2.423-0.162,4.855-0.365,7.315-0.6c10.438-0.995,20.935-0.797,31.407-0.783c9.146,0.013,18.136-0.59,27.278-0.571
	c18.616,0.039,37.65-0.268,56.052-3.252c9.039-1.466,18.066-1.57,27.124-2.395c3.795-0.345,7.007-0.228,10.805,0.057
	c3.049,0.229,5.965-0.165,8.88-0.566c6.454,5.012,15.236,7.073,23.473,6.648c4.15,0.639,8.235,1.043,12.486,0.102
	c6.051-1.338,9.485-4.667,11.46-9.004c2.825-2.171,4.645-5.927,4.645-9.28c0-2.411-0.746-4.512-1.995-6.26
	c0.293-10.372-0.528-20.775,0-31.136c0.013-0.253,0.024-0.504,0.037-0.756c4.916-2.697,8.826-7.087,10.038-12.512
	c1.622-7.26,0.733-14.617,0.707-21.988c-0.029-8.251,0.542-16.484,0.856-24.726C447.947,364.34,446.601,348.048,445.772,331.746z"/>
<g>
	<path style="fill:#B3B3B3;" d="M188.207,479.578c-9.034-2.593-20.287,0.003-29.612,0.222c-9.855,0.232-19.713,0.576-29.568,0.742
		c-9.521,0.16-18.886,0.774-28.317,2.121c-0.962,0.138-1.94,0.246-2.92,0.348c0.04-1.775-0.845-3.484-2.911-3.767
		c-0.684-0.093-1.235-0.523-1.692-1.155c0.056-1.315,0.121-2.631,0.191-3.951c0.399-7.539,0.909-15.023,1.712-22.531
		c0.736-6.88,1.293-13.783,1.524-20.699c0.184-5.521-0.616-12.225,0.208-17.961c1.895-1.596,2.092-5.386-0.322-7.138
		c-0.35-0.254-0.699-0.508-1.049-0.761c-1.741-1.265-5.022-0.437-5.899,1.546c-0.268,0.603-0.486,1.235-0.696,1.871
		c-0.121-3.28-0.188-6.563-0.372-9.839c-0.55-9.837-0.951-19.678-1.597-29.508c-0.169-2.585-0.323-5.17-0.485-7.755
		c-0.261-13.151-0.746-26.295-1.185-39.444c-0.245-7.297-0.375-14.61-0.583-21.92c0.829,7.58,2.377,15.49,6.42,21.345
		c0.713,1.034,1.795,1.492,2.838,1.466c2.072,18.576,5.492,36.76,10.315,54.878c0.935,3.512,5.944,4.171,7.751,1.012
		c2.592-4.527,1.103-8.876,0.396-13.793c-0.757-5.268-1.015-10.588-1.867-15.845c-1.868-11.513-3.802-22.827-4.956-34.454
		c-2.394-24.114-4.491-48.235-6.38-72.396c-3.902-49.919-8.116-99.81-12.326-149.701c-0.173-2.051-2.272-2.81-3.704-2.216
		c-0.643-7.405-1.445-14.805-2.305-22.175c-0.658-5.636-1.73-11.039-3.364-16.475c-0.852-2.832-1.083-5.648-4.05-6.753
		c-1.309-0.487-2.166,0.643-2.212,1.776c-0.034-0.005-0.068-0.009-0.101-0.014c2.323,20.478,3.142,41.679,4.502,62.483
		c0.074,1.148,0.157,2.295,0.234,3.443c-0.63,0.438-1.076,1.127-1.071,2.022c0.112,19.76-2.372,39.589-3.207,59.35
		c-0.857,20.265-1.284,40.566-1.932,60.841c-1.332,41.774,0.538,83.841,3.102,125.546c0.562,9.136,1.331,18.264,2.296,27.368
		c-0.668,18.448-0.761,36.905-0.819,55.364c-0.029,9.158,0.222,18.202,1.48,27.285c0.638,4.61,1.155,10.613,4.378,14.281
		c-0.187,3.718-0.023,7.402,1.13,10.262c2.252,5.593,10.317,6.449,12.265,0c-0.65,2.151,3.289,0.393,4.445,0.15
		c1.457-0.307,2.914-0.625,4.374-0.91c4.335-0.846,8.638-1.179,13.035-1.515c7.918-0.605,15.855-0.478,23.789-0.81
		c8.11-0.34,16.207-0.049,24.282-0.999c7.895-0.929,17.468-0.946,24.837-3.917C191.509,485.57,192.096,480.694,188.207,479.578z
		 M81.52,208.368c0.401,15.628,0.502,31.252,0.476,46.912c-0.005,3.146,0.061,6.288,0.173,9.428
		c-0.071-0.345-0.221-0.634-0.427-0.858c-0.213-7.25-0.337-14.504-0.282-21.767C81.548,230.84,81.551,219.604,81.52,208.368z"/>
	<path style="fill:#B3B3B3;" d="M356.364,330.701c-3.732-0.202-7.698,1.747-11.275,2.622c-2.611,0.64-5.24,1.228-7.874,1.798
		c3.816-1.611,7.635-3.19,11.506-4.487c2.323-0.778,1.818-3.965-0.564-4.165c-7.238-0.61-15.62,2.116-22.588,3.892
		c-8.441,2.151-16.688,4.955-25.212,6.801c-18.016,3.902-36.199,7.962-54.532,10.034c-18.81,2.125-37.859,2.18-56.766,2.453
		c-18.944,0.273-37.852,1.456-56.779,0.058c-4.541-0.336-4.402,6.528,0,7.003c18.826,2.029,37.864,2.223,56.779,2.66
		c10.326,0.239,20.657,0.439,30.979,0.279c-14.728,3.416-29.434,6.984-44.23,9.954c-10.038,2.016-19.959,4.603-30.031,6.431
		c-9.058,1.645-18.722,1.608-27.604,3.749c-4.025,0.97-2.314,7.047,1.704,6.181c9.372-2.019,19.746-1.423,29.297-2.602
		c9.766-1.206,19.467-2.995,29.196-4.465c20.704-3.13,41.211-8.174,61.747-12.285c21.359-4.275,42.653-8.941,63.896-13.766
		c10.15-2.305,20.361-4.698,30.378-7.528c3.929-1.11,7.946-2.209,11.666-3.917c4.306-1.977,7.173-5.295,11.152-7.58
		C358.712,332.963,357.974,330.788,356.364,330.701z"/>
	<path style="fill:#B3B3B3;" d="M353.698,225.421c-8.133,3.126-16.683,5.704-24.934,8.674c-8.678,3.125-17.24,6.443-26.043,9.213
		c-18.54,5.835-36.911,9.651-56.314,11.311c-19.357,1.658-38.863,1.149-58.269,1.579c-19.266,0.427-38.53,1.422-57.75,0.965
		c-4.238-0.101-4.119,6.167,0,6.509c19.575,1.625,39.297,1.759,58.975,2.41c20.479,0.678,41.297,1.39,61.719-0.616
		c19.237-1.89,37.467-5.458,55.802-11.57c9.482-3.161,18.742-6.866,27.904-10.86c7.129-3.107,16.517-6.899,21.74-12.754
		C358.283,228.316,356.622,224.298,353.698,225.421z"/>
	<path style="fill:#B3B3B3;" d="M338.457,212.464c-32.936,10.136-66.384,14.861-100.74,17.068
		c-17.754,1.14-35.476,2.765-53.222,4.022c-8.915,0.631-17.787,1.634-26.689,2.413c-5.773,0.505-14.334-0.139-18.957,3.877
		c-2.074,1.801,0.567,4.782,2.809,3.64c2.998-1.528,8.172-0.799,11.492-0.915c4.29-0.151,8.587-0.227,12.878-0.327
		c9.376-0.217,18.802,0.207,28.185,0.244c18.202,0.072,36.385-0.278,54.569-1.129c17.394-0.814,36.128-1.631,53.065-5.892
		c13.28-3.34,31.48-6.758,40.284-18.22C343.903,214.939,340.979,211.687,338.457,212.464z"/>
	<path style="fill:#B3B3B3;" d="M305.708,154.318c-0.068-0.071-0.135-0.141-0.203-0.212c-0.882-0.924-2.611-1.218-3.705-0.478
		c0.336-0.227-1.342-0.278-1.463-0.25c-1.418,0.336-2.719,1.265-4.095,1.752c-2.945,1.044-6.118,1.433-9.198,2.001
		c-6.642,1.226-13.324,2.346-20.008,3.315c-0.616,0.09-1.232,0.162-1.848,0.249c-16.16-10.459-37.311-10.726-56.007-9.399
		c-21.834,1.549-43.592,4.969-65.138,8.778c-3.568,0.631-2.782,6.871,0.865,6.393c20.544-2.694,41.172-4.228,61.856-5.258
		c9.72-0.484,19.445-0.433,29.122,0.71c3.435,0.405,6.913,0.728,10.36,1.169c-6.178,0.725-12.358,1.443-18.535,2.279
		c-27.584,3.733-55.164,7.274-82.801,10.56c-4.624,0.55-4.804,7.807,0,7.397c28.871-2.463,57.803-3.761,86.597-7.205
		c13.394-1.602,26.781-2.756,40.159-4.586c11.563-1.582,27.573-2.216,34.579-13.073
		C307.072,157.169,306.723,155.382,305.708,154.318z"/>
</g>
<path style="fill:#D96F6F;" d="M422.851,89.337c-4.254-10.362-13.21-18.02-22.276-24.172c-20.869-14.163-46.33-24.602-71.882-20.734
	c-12.061,1.825-23.993,5.725-33.463,13.75c-1.28,1.084-2.488,2.207-3.645,3.361c-0.574-0.393-1.366-0.461-2.019,0.155
	c-9.761,9.231-19.713,17.158-25.475,29.617c-5.2,11.245-6.835,23.712-5.228,35.971c1.655,12.624,6.051,22.937,13.937,32.905
	c6.927,8.754,16.866,13.932,27.03,18.058c1.589,0.645,3.22,1.231,4.883,1.769c3.272,1.435,6.632,2.7,9.871,3.878
	c13.637,4.956,29.528,4.377,43.65,1.482c7.157-0.682,14.243-2.084,20.959-4.416c22.797-7.914,40.327-32.739,44.279-55.92
	C425.483,113.251,427.56,100.807,422.851,89.337z M314.459,56.146c20.883-9.91,46.771-5.225,66.34,5.586
	c9.305,5.141,18.641,9.938,26.514,17.234c8.814,8.168,12.318,17.963,11.986,29.895c-0.151,5.416-0.911,10.905-2.217,16.303
	c-0.978-0.058-1.974,0.312-2.546,1.281c-5.55,9.399-13.442,17.602-21.013,25.419c-7.77,8.023-16.5,14.776-26.433,19.92
	c-10.208,5.287-22.615,6.26-33.98,6.008c-10.861-0.241-22.2-4.449-31.536-9.925c-20.327-11.922-25.572-38.652-22.148-60.364
	c1.589-10.082,5.194-23.745,11.784-31.719C298.018,67.542,304.656,60.798,314.459,56.146z M264.952,135.99
	c-3.603-13.343-3.56-27.231,1.342-40.23c3.558-9.433,9.683-16.399,16.48-23.061c-2.728,4.407-4.956,9.153-6.817,14.214
	c-5.08,13.82-7.477,27.969-5.909,42.703c1.256,11.809,4.377,23.995,12.273,33.104c0.105,0.121,0.216,0.245,0.322,0.367
	C274.167,156.307,267.729,146.269,264.952,135.99z M392.434,165.839c0.831-0.765,1.65-1.534,2.447-2.306
	c2.58-2.501,5.067-5.079,7.433-7.748C399.362,159.49,396.069,162.883,392.434,165.839z"/>
<g>
	<path style="fill:#E6E6E6;" d="M263.575,30.29c-13.004-0.803-26.67,0.665-39.601,2.029c-13.538,1.427-27.079,2.635-40.627,3.956
		c-12.106,1.18-24.159,1.695-36.256,2.656c-6.319,0.501-12.594,1.136-18.94,0.592c-6.334-0.543-12.868-1.743-19.224-1.036
		c-2.866,0.319-2.909,4.848,0,4.537c6.349-0.678,12.91,0.531,19.224,1.124c5.961,0.558,11.928,0.326,17.889-0.057
		c12.858-0.824,25.673-0.79,38.555-1.9c13.545-1.166,27.053-2.414,40.577-3.796c12.839-1.313,26.227-2.14,38.836-4.908
		C265.88,33.076,265.331,30.398,263.575,30.29z"/>
	<path style="fill:#E6E6E6;" d="M279.356,49.601c-24.554-1.572-49.337-0.828-73.91-0.102c-12.453,0.367-24.878,1.242-37.287,2.359
		c-12.037,1.084-23.734,2.955-35.877,3.088c-2.854,0.032-2.861,4.421,0,4.439c24.423,0.141,48.749-2.173,73.165-2.341
		c24.667-0.17,49.297-0.691,73.91-2.413C282.584,54.405,282.6,49.81,279.356,49.601z"/>
	<path style="fill:#E6E6E6;" d="M427.865,155.903c-2.541,16.075-3.652,32.489-5.197,48.686c-1.603,16.812-2.967,33.6-4.028,50.453
		c-2.01,31.875-7.931,66.051,0.588,97.323c0.453,1.663,3.263,1.4,3.099-0.419c-1.384-15.392,0.178-31.574,1.126-47.003
		c0.996-16.221,2.046-32.441,3.029-48.662c0.971-16.041,2.137-32.019,3.558-48.027c1.485-16.731,2.501-33.758,5.054-50.359
		C435.819,153.183,428.62,151.137,427.865,155.903z"/>
	<path style="fill:#E6E6E6;" d="M404.634,203.609c0.141-4.446-6.748-4.436-6.904,0c-0.9,25.457-0.008,51.088,0.619,76.546
		c0.653,26.491,1.55,52.943,3.534,79.366c0.176,2.343,3.479,2.351,3.65,0C409.292,307.66,402.982,255.551,404.634,203.609z"/>
</g>
<path d="M444.209,7.832c-1.445,1.093-8.527-1.62-10.488-1.873c-5.798-0.747-11.214-3.027-17.016-3.771
	c-2.835-0.364-5.764,0.05-8.561-0.398c-2.522-0.405-4.878-1.318-7.452-1.6c-6.076-0.663-12.17,0.563-18.199,1.218
	c-6.211,0.675-12.491,1.926-18.712,2.277c-6.467,0.365-12.993-0.184-19.455,0.295c-12.432,0.922-24.796,3.845-37.372,1.971
	c-12.906-1.923-25.572-1.459-38.641-1.278c-6.704,0.093-13.477,0.482-20.175,0.216c-6.734-0.266-13.362-1.49-20.116-1.496
	c-27.052-0.029-53.914,2.719-80.896,4.482c-14.764,0.965-29.675,0.853-44.467,0.985C96.42,8.917,90.924,6.604,84.604,7.408
	C79.535,8.053,74.56,7.173,69.567,7.614c-0.319-2.883-4.663-2.81-4.805,0.22c-0.115,2.482-2.214,4.517-2.377,7.282
	c-0.321,5.449-1.819,10.379-2.51,15.775c-1.509,11.797-2.104,23.98-2.319,35.866c-0.418,23.138-1.507,46.54,0.81,69.567
	c1.126,11.199,0.468,22.656,0.283,33.894c-0.179,10.846,2.015,21.416,1.482,32.2c-0.552,11.17,2.803,21.504,1.004,32.702
	c-1.875,11.674-1.113,23.56-1.097,35.343c0.033,23.455-0.627,47.185-1.814,70.612c-0.568,11.202,1.172,21.857,1.341,33.01
	c0.168,11.038,1.37,22.027,1.578,33.07c0.104,5.436,0.433,10.871,0.328,16.309c-0.112,5.865-1.25,11.563-1.752,17.39
	c-0.506,5.872-0.51,11.794-0.465,17.683c0.045,5.875-0.646,11.094-1.429,16.872c-1.24,9.151,0.477,19.445,4.066,27.93
	c2.969,7.018,9.531,9.082,16.705,8.595c3.433-0.234,6.787-1.06,10.16-1.679c4.631-0.85,9.158-0.615,13.848-0.372
	c11.553,0.597,22.22-1.024,33.649-2.178c11.039-1.115,22.182-1.275,33.245-0.423c11.145,0.858,21.848,2.871,33.08,2.724
	c11.969-0.155,23.844-0.083,35.745-1.579c11.127-1.399,22.378-2.979,33.605-3.186c10.962-0.202,21.609-1.849,32.615-1.774
	c11.217,0.077,22.234,2.017,33.419,2.229c11.447,0.216,22.921-2.238,34.351-1.467c4.886,0.329,9.66,1.767,14.557,2.001
	c5.455,0.261,10.836-2.324,16.205-1.57c4.792,0.673,9.149,1.992,14.066,1.843c2.469-0.074,5.21-0.669,7.683-0.399
	c2.125,0.232,3.65,1.271,5.671,1.952c9.275,3.128,14.85-3.631,16.539-12.027c1.886-9.375,1.203-18.919,0.701-28.388
	c-0.586-11.006,2.15-21.679,1.457-32.591c-0.682-10.743-1.541-21.728-0.677-32.478c0.952-11.848,0.304-23.351,0.115-35.223
	c-0.38-23.83,0.186-47.519,0.823-71.33c0.333-12.463,1.889-24.801,2.675-37.232c0.745-11.777,0.549-23.653,0.711-35.449
	c0.663-48.248,1.299-96.582,0.11-144.822c-0.107-4.358-0.641-8.65-1.266-12.929c1.664-7.307,1.438-15.298,2.623-22.651
	c1.44-8.939-0.513-17.935,0.699-26.802C455.742,10.74,450.017,3.44,444.209,7.832z M440.459,41.744
	c-1.055,0.855-1.779,2.166-1.789,3.962c-0.063,10.554,0.427,21.026,0.193,31.6c-0.259,11.728-0.521,23.441-0.537,35.173
	c-0.029,23.522,0.092,47.04,0.232,70.56c0.135,22.761,0.733,45.524,0.76,68.284c0.013,11.574-0.55,23.142-0.75,34.712
	c-0.206,11.948,0.521,23.868,0.861,35.807c0.326,11.457,0.062,22.976-0.081,34.437c-0.145,11.718,0.204,23.568-0.98,35.242
	c-1.063,10.478-2.349,20.609-2.689,31.167c-0.169,5.259,0.141,10.545-0.111,15.796c-0.242,5.028-1.502,9.954-2.102,14.946
	c-1.271,10.572,0.47,21.23-0.173,31.837c-0.102,1.689-0.768,3.867-1.217,5.904c-1.371-0.461-2.916-0.697-4.047-0.834
	c-4.724-0.576-9.43,0.651-14.152,0.288c-4.979-0.384-9.577-2.229-14.657-1.838c-5.41,0.415-10.026,2.096-15.524,1.315
	c-5.333-0.757-10.474-1.613-15.883-1.422c-10.779,0.383-21.453,2.389-32.263,2.14c-10.75-0.247-21.313-1.622-32.096-1.475
	c-10.656,0.146-20.927,2.017-31.529,2.458c-10.554,0.439-21.291,1.925-31.692,3.723c-11.371,1.966-22.677,2.26-34.167,2.758
	c-11.277,0.49-21.946-0.687-33.15-1.473c-10.695-0.751-21.461-0.478-32.12,0.659c-10.515,1.122-20.82,3.963-31.375,4.475
	c-8.727,0.424-17.078-0.015-25.706,1.476c-2.131,0.369-7.53,1.983-9.441,0.539c-1.656-1.252-0.486-3.802-0.303-5.498
	c0.273-2.521-0.239-4.743-0.802-7.168c-2.337-10.062,1.882-20.229,2.158-30.373c0.149-5.509,0.001-11.022,0.271-16.529
	c0.288-5.858,1.473-11.603,1.791-17.453c0.579-10.661-0.001-21.768-0.73-32.417c-0.709-10.373-0.991-21.239-2.511-31.499
	c-3.251-21.949-2.386-44.562-2.998-66.781c-0.316-11.493-0.749-22.981-0.894-34.478c-0.073-5.788-0.177-11.598,0.032-17.385
	c0.203-5.652,1.875-11.126,1.992-16.783c0.092-4.424-0.703-8.812-1.429-13.157c-1.011-6.052-0.443-11.681-0.484-17.755
	c-0.032-4.652-1.158-9.04-1.774-13.617c-0.725-5.386-0.295-10.961-0.284-16.383c0.044-22.225-2.274-44.142-2.514-66.356
	c-0.25-23.188-0.43-46.277,1.006-69.434c0.273-4.396,1.591-8.628,1.332-13.054c-0.124-2.098,0.375-3.834,0.824-5.579
	c3.804,1.476,7.373,3.267,11.569,3.564c3.443,0.244,6.64-0.304,10.038,0.514c3.035,0.731,5.821,1.743,8.968,2.001
	c12.883,1.055,26.453,0.457,39.382,0.258c27.376-0.422,54.549-2.933,81.918-2.594c14.316,0.177,28.399,2.259,42.74,2.49
	c13.064,0.211,26.659-0.894,39.483,1.588c12.96,2.507,26.231,0.903,39.172-0.506c5.954-0.649,12.107-0.125,18.087-0.096
	c6.764,0.033,13.293-1.288,19.991-2.035c6.579-0.733,13.85-2.626,20.431-1.456c6.719,1.196,13.49,1.082,20.089,2.843
	c5.696,1.52,11.477,2.358,17.222,3.598c0.937,0.202,1.871,0.369,2.798,0.49C441.146,29.214,441.429,35.513,440.459,41.744z"/>
<path d="M325.143,77.369c-1.969-3.609-3.508-7.666-7.063-9.36c-0.802-1.098-1.584-2.166-2.277-3.199
	c-2.036-3.034-7.426-2.977-8.316,1.087c-1.038,4.744-2.583,9.36-3.508,14.132c-0.355,1.829-0.704,3.883-0.548,5.812
	c-0.819,3.231-1.291,6.566-1.968,9.815c-1.886,9.067-4.371,17.99-6.667,26.958c-2.084,8.141-4.182,16.265-4.575,24.702
	c-0.294,6.331-1.117,16.042,4.633,20.152c0.757,0.542,2.13,0.539,2.887,0c6.022-4.289,4.53-13.637,4.71-20.152
	c0.134-4.817,0.973-9.523,2.014-14.196c2.209-0.494,4.927-0.669,6.223-1.169c4.335-1.673,7.58-4.487,12.188-5.705
	c4.388-1.16,8.86-1.879,13.065-3.641c2.895-1.213,5.507-2.868,8.184-4.42c1.761,2.012,3.444,4.097,4.918,6.378
	c4.314,6.676,8.665,13.257,13.783,19.352c1.122,1.336,3.492,0.583,3.874-1.023c4.32-18.136-13.49-32.277-24.283-43.925
	C336.302,92.364,329.468,85.294,325.143,77.369z M332.557,110.18c-5.936,1.222-12.179,2.971-17.708,5.465
	c-2.88,1.299-5.099,3.382-7.513,5.22c1.911-8.629,3.454-17.352,4.665-26.105c0.641-4.638,2.255-9.545,2.925-14.37
	c1.271,1.192,2.746,2.08,4.528,2.457c0.617,1.6,1.333,3.17,2.091,4.671c3.479,6.898,8.219,13.673,12.949,19.767
	c0.582,0.75,1.182,1.483,1.794,2.203C335.062,109.672,333.82,109.919,332.557,110.18z"/>
<path d="M396.539,77.606c-6.185-1.083-10.69,1.05-15.368,3.499c-1.13-3.933-2.342-7.837-3.481-11.82
	c-1.163-4.066-8.067-3.479-7.653,1.035c0.482,5.256,1.185,10.5,1.88,15.74c-3.54,2.527-8.622,6.51-10.269,5.321
	c-0.982-0.709-2.579,0.014-2.825,1.149c-1.755,8.111,9.242,5.367,13.363,3.751c0.331-0.13,0.665-0.24,0.999-0.351
	c0.795,5.906,2.044,12.076,5.862,16.65c1.17,1.401,3.363,1.386,4.846,0.625c0.342-0.175,0.684-0.351,1.026-0.525
	c1.486-0.761,1.698-2.375,1.174-3.718c0.757-5.22-0.73-10.847-1.952-16.038c2.099-0.938,4.035-2.265,6.224-3.122
	c2.756-1.078,4.892-2.264,7.236-4.063C400.254,83.709,400.763,78.346,396.539,77.606z"/>
<path d="M103.196,212.568c-0.01,0.037-0.02,0.073-0.03,0.11c2.957,0.4,5.907-0.664,8.898-0.938
	c4.338-0.396,9.074-1.384,13.041-3.167c1.942-0.874,1.03-3.44-0.53-4.056c-2.319-0.915-4.575-0.905-6.837-0.559
	c0.048-3.989-0.683-7.97-0.775-11.962c-0.174-7.557-0.096-15.11-0.877-22.632c-0.109-2.05-2.963-2.002-3.151,0
	c-0.178,1.884-0.321,3.789-0.451,5.697c-1.284,5.75-4.781,11.643-8.063,15.818c-0.687,0.872,0.448,2.107,1.255,1.255
	c2.274-2.401,4.55-5.382,6.397-8.631c-0.121,4.105-0.138,8.212-0.015,12.257c0.074,2.444,0.625,5.088,0.312,7.523
	c-0.091,0.702-0.335,1.366-0.686,1.973c-0.165,0.034-0.331,0.071-0.496,0.102c-1.654,0.324-3.8,0.316-5.288,1.084
	c-1.068,0.552-1.587,1.606-2.733,1.842C100.698,208.792,101.251,211.889,103.196,212.568z"/>
<path d="M113.943,326.148c2.93,0.462,6.392,1.151,9.117-0.428c0.744-0.43,1.098-1.35,0.884-2.171
	c-1.178-4.517-8.619-6.531-15.342-6.048c0.308-0.251,0.607-0.501,0.877-0.746c2.448-2.223,4.797-4.493,6.637-7.255
	c3.335-5.007,5.281-11.777,3.149-17.693c-1.699-4.715-6.07-6.2-10.435-3.885c-5.752,3.05-4.65,8.052-4.67,13.416
	c-0.004,1.143,1.771,1.144,1.775,0c0.01-2.692,0.144-3.736,1.997-5.711c1.533-1.634,3.349-3.145,4.963-0.731
	c1.265,1.894-0.533,6.986-1.163,8.981c-1.081,3.422-3.498,10.096-6.943,14.196c-3.491,0.826-6.32,2.445-7.22,4.867
	c-0.704,1.895,1.956,3.123,3.209,1.867l0.001,0.001C102.834,322.842,111.528,325.768,113.943,326.148z"/>
<path d="M118.416,382.093c-6.851-2.492-14.783,5.859-13.281,12.527c0.481,2.136,3.58,1.543,3.681-0.499
	c0.104-2.086,4.054-6.161,6.489-5.277c3.006,1.091,1.052,6.878,0.625,8.875c-1.002,4.699-1.324,9.298,0.061,13.944
	c1.261,4.235,4.209,9.858-0.369,12.984c-1.536,1.049-3.569,1.468-5.392,1.506c-0.651,0.013-1.459-0.006-2.092-0.175
	c-1.751-0.468-0.548,0.293-1.303-0.712c-1.161-1.546-3.857-1.182-3.859,1.045c-0.011,9.112,9.265,10.481,16.109,6.774
	c3.358-1.819,6.228-4.626,7.24-8.386c1.635-6.079-2.563-9.764-4.278-15.123C119.639,402.059,129.496,386.122,118.416,382.093z"/>
<path d="M362.245,191.476c-5.071,0.018-9.307,1.319-13.946,3.29c-5.548,2.358-11.183,5.786-17.12,3.024
	c-2.967-1.38-5.593-3.253-8.852-3.949c-2.237-0.477-4.268-0.08-6.513-0.112c-2.474-0.037-4.215-0.923-6.566-1.247
	c-9.399-1.298-18.273,4.523-26.872,7.049c-11.471,3.369-21.77-3.271-33.215-2.382c-11.272,0.875-22.825,4.735-33.967,0.698
	c-4.759-1.724-9.059-5.657-14.098-6.499c-3.537-0.591-6.776,0.716-10.039,1.943c-5.625,2.115-10.992,4.716-16.754,6.474
	c-4.581,1.398-9.528,4.131-14.398,4.22c-6.512,0.12-8.283-4.196-12.276-7.916c-1.653-1.539-3.026-2.33-5.25-1.675
	c-0.677,0.199-0.778,1.332,0,1.475c3.208,0.586,4.362,6.32,6.349,8.576c2.399,2.724,5.797,4.15,9.362,4.54
	c8.468,0.927,18.446-4.99,25.754-8.727c7.057-3.608,13.277-8.121,21.118-4.089c4.387,2.256,8.231,5.074,13.09,6.348
	c10.856,2.844,21.43-0.717,32.209-1.502c10.753-0.783,20.402,5.526,31.327,3.291c5.379-1.1,10.222-3.909,15.553-5.184
	c2.378-0.569,4.948-1.078,7.37-1.408c3.157-0.429,4.871,0.591,7.756,1.124c4.918,0.909,8.667,0.193,13.057,3.19
	c3.006,2.051,5.806,4.031,9.578,4.259c9.706,0.587,19.982-6.675,28.553-10.353C365.723,194.957,364.452,191.468,362.245,191.476z"/>
<path d="M355.089,215.069c-16.09-3.709-31.153,8.385-47.261,6.624c-9.011-0.986-17.076-6.105-26.045-7.662
	c-7.751-1.344-15.595-1.438-23.34-2.776c-16.715-2.89-33.304-1.519-49.866,1.778c-8.602,1.712-17.154,3.199-25.808,4.599
	c-4.971,0.804-9.356,0.802-14.322-0.023c-2.813-0.466-5.08-1.892-7.837-2.303c-1.66-0.247-2.413,2.26-0.708,2.568
	c2.526,0.457,4.449,2.121,7.015,2.62c3.859,0.751,7.72,1.675,11.657,1.242c8.139-0.894,16.303-2.241,24.328-3.869
	c19.592-3.978,37.832-5.495,57.632-2.44c7.726,1.192,15.446,1.541,23.096,3.32c8.114,1.886,15.217,6.731,23.532,7.876
	c7.832,1.078,15.707-0.929,23.178-3.092c8.207-2.375,16.566-3.297,24.749-5.418C356.566,217.731,356.621,215.423,355.089,215.069z"
	/>
<path d="M152.233,303.807c8.641-0.414,16.284-4.931,24.711-6.278c6.12-0.978,10.029,0.226,15.531,2.44
	c3.707,1.492,8.946,2.733,12.888,3.499c4.177,0.812,8.261-0.222,12.378-0.813c4.715-0.678,9.486-0.73,14.206-1.389
	c5.701-0.797,10.86-1.968,16.583-0.607c4.487,1.067,8.457,3.373,13.088,4.017c9.014,1.254,18.544-2.084,27.154-4.227
	c11.464-2.852,22.667-4.17,34.351-2.088c4.738,0.845,9.56,1.312,14.279,2.247c4.535,0.899,8.851,2.616,13.48,2.963
	c1.078,0.081,1.61-1.673,0.573-2.113c-16.039-6.811-34.121-10.886-51.516-8.319c-10.456,1.543-20.469,5.536-30.979,6.63
	c-9.347,0.973-16.902-4.479-26.062-4.719c-3.811-0.1-7.394,0.9-11.13,1.48c-5.071,0.786-10.206,0.803-15.272,1.606
	c-5.66,0.898-9.63,0.712-15.161-0.795c-2.442-0.665-4.874-0.802-7.23-1.762c-1.745-0.712-3.251-1.921-5.035-2.53
	c-7.241-2.473-16.662,0.372-23.6,2.549c-4.347,1.363-8.667,2.973-13.237,3.395c-1.896,0.175-4.694,0.486-6.544-0.176
	c-2.96-1.058-3.843-4.316-5.623-6.489c-1.285-1.567-4.003,0.507-2.827,2.181c1.896,2.699,2.199,5.609,5.141,7.508
	C145.136,303.795,149.077,303.959,152.233,303.807z"/>
<path d="M158.527,323.637c5.002-0.665,9.959-1.404,14.888-2.516c5.033-1.136,9.975-3.552,15.119-4.008
	c5.651-0.5,11.213-0.886,16.832-0.306c5.543,0.573,10.582,1.703,16.032,2.703c8.795,1.612,19.011,1.978,27.916,1.372
	c10.131-0.689,20.048-3.9,30.185-4.869c5.628-0.538,11.012-0.538,16.547,0.85c3.999,1.002,8.58,1.371,12.282,2.881
	c7.196,2.933,16.22,1.876,23.952,1.149c9.252-0.871,18.163-2.113,27.439-2.448c2.758-0.1,2.697-4.016,0-4.241
	c-8.288-0.693-15.451,0.423-23.666,1.284c-4.939,0.518-9.783,0.85-14.748,0.937c-1.901,0.033-3.92,0.335-5.815,0.269
	c-2.748-0.095-4.828-1.464-7.397-2.063c-3.909-0.91-8.033-1.048-12.026-1.899c-3.996-0.852-7.991-1.151-12.07-0.939
	c-8.929,0.465-17.751,2.397-26.492,4.146c-9.482,1.896-19.437,1.795-29.073,0.909c-9.406-0.866-18.313-4.208-27.819-4.728
	c-9.091-0.497-17.318,2.399-25.971,4.622c-4.528,1.164-9.129,1.948-13.713,2.851c-5.772,1.137-11.574,3.219-16.669-1.159
	c-0.471-0.404-1.365,0.148-0.929,0.717C147.285,324.321,152.427,324.448,158.527,323.637z"/>
<path d="M361.442,396.718c-4.451-0.927-8.525-2.823-12.858-4.107c-4.793-1.42-9.995-1.977-14.926-2.803
	c-9.161-1.534-18.832,1.063-27.615,3.605c-10.043,2.907-19.95,7.256-30.56,7.548c-6.315,0.174-11.43-1.963-17.322-3.631
	c-4.828-1.366-9.415-1.529-14.417-1.076c-9.915,0.9-19.257,4.305-29.066,5.733c-5.013,0.73-10.174,2.187-15.264,1.991
	c-5.175-0.199-8.962-3.069-13.72-4.472c-7.614-2.245-16.212,0.134-22.8,4.2c-3.737,2.306-8.4,7.9-12.212,3.101
	c-1.929-2.429-2.352-6.725-2.539-9.688c-0.143-2.26-3.598-2.305-3.551,0c0.1,4.853,0.884,11.489,5.004,14.73
	c5.431,4.273,10.963-1.64,15.524-4.331c5.603-3.308,12.926-5.651,19.39-3.725c4.249,1.265,7.725,3.776,12.207,4.374
	c4.626,0.619,9.162-0.317,13.706-1.054c5.584-0.906,11.069-1.608,16.557-3.027c6.287-1.625,12.566-3.029,19.081-3.339
	c6.825-0.324,12.155,1.944,18.541,3.732c10.252,2.87,20.921,0.587,30.881-2.363c10.947-3.242,23.322-8.556,34.929-7.421
	c5.555,0.543,11.33,1.737,16.736,3.123c4.768,1.225,8.861,2.7,13.834,2.29C362.794,399.959,363.477,397.142,361.442,396.718z"/>
<path d="M211.479,426.924c8.514,0.254,16.855,2.096,25.335,2.671c15.119,1.026,29.959-3.3,44.51-6.755
	c7.862-1.867,16.26-4.859,24.28-2.372c5.719,1.772,10.535,4.417,16.643,3.353c1.813-0.316,1.136-2.776-0.4-2.954
	c-6.558-0.761-12.244-4.612-18.731-5.601c-5.656-0.863-11.287,0.506-16.76,1.834c-14.683,3.564-29.631,8.349-44.862,8.449
	c-7.231,0.048-14.365-1.31-21.535-2.07c-7.753-0.821-15.341-0.574-23.099,0.019c-6.943,0.531-13.841,1.502-20.752,2.033
	c-3.734,0.285-7.504-0.138-11.24,0.155c-3.842,0.3-7.248,1.25-10.641-1.28c-0.554-0.413-1.062,0.433-0.688,0.891
	c2.974,3.637,6.868,3.873,11.329,3.95c7.653,0.134,14.721-0.708,22.285-1.196C195.22,427.532,203.393,426.682,211.479,426.924z"/>
<path d="M155.61,241.603c-0.283-0.394-1.069-0.172-0.856,0.361c5.57,13.945,23.451,4.461,33.837,4.465
	c8.198,0.004,15.159,3.986,23.625,2.086c5.432-1.22,9.111-3.121,14.648-0.621c2.462,1.112,4.324,2.462,7.167,2.486
	c2.407,0.02,4.248-0.858,6.181-2.184c4.422-3.034,4.23-0.458,8,1.541c4.388,2.328,10.953,1.579,15.207-0.678
	c1.155-0.612,2.313-1.993,3.507-2.423c6.284-2.257,6.753,0.023,8.029,3.921c0.908,2.771,1.514,5.471,2.65,8.183
	c1.01,2.409,2.123,4.419,3.371,6.188c0.02,0.096,0.033,0.191,0.057,0.288c0.834,3.313,3.722,4.865,6.551,6.452
	c1.49,1.16,3.118,2.299,4.913,3.506c2.212,1.487,4.395-1.829,2.705-3.507l0.004-0.004c-0.008-0.006-0.014-0.01-0.021-0.016
	c-0.124-0.12-0.265-0.232-0.43-0.333c-0.01-0.006-0.023-0.011-0.033-0.018c-2.698-2.049-5.846-3.559-8.181-6.042
	c-0.696-0.74-1.338-1.558-1.944-2.419c0.348-2.07,2.242-3.982,4.124-5.694c5.417-4.925,11.818-7.851,19.262-6.736
	c3.8,0.569,8.605,2.173,11.982-0.674c0.038-0.032,0.067-0.064,0.104-0.097c0.148,0.081,0.294,0.168,0.443,0.244
	c3.554,1.829,5.742,0.981,9.297-0.324c1.418-0.52,1.363-3.048-0.386-2.858c-1.305,0.143-5.295,0.559-7.833-0.173
	c-0.074-1.546-1.187-3.07-2.652-4.349c-1.288-1.125-2.97-0.289-3.159,1.308c-0.124,1.044,0.1,1.948,0.52,2.751
	c-1.524,0.534-5.969-0.484-5.287-0.348c-1.541-0.306-3.16-0.605-4.732-0.716c-3.286-0.232-6.46,0.164-9.523,1.384
	c-4.566,1.818-8.702,5.172-11.928,8.843c-0.918,1.044-1.847,2.219-2.58,3.488c-0.956-1.881-1.772-3.826-2.455-5.68
	c-1.559-4.23-2.53-9.53-7.245-11.425c-5.115-2.055-9.61,2.559-14.439,3.388c-1.89,0.324-5.297,0.654-7.145-0.14
	c-1.589-0.682-2.454-2.514-3.901-3.388c-1.539-0.93-3.09-1.188-4.853-0.731c-2.569,0.667-3.902,2.984-6.111,4.22
	c-4.15,2.322-7.24,0.003-11.26-0.568c-7.306-1.038-13.783,2.993-21.06,2.888c-7.604-0.11-14.317-3.582-22.122-2.872
	C172.647,245.397,162.266,250.861,155.61,241.603z"/>
<path d="M336.996,255.789c0.081,0,0.081-0.126,0-0.126S336.915,255.789,336.996,255.789z"/>
<path d="M200.693,349.638c0.197,0.528,0.425,1.033,0.696,1.502c2.853,4.942,6.625,6.878,11.678,9.266
	c5.814,2.747,16.205,4.477,19.44,10.336c0.672,1.217,2.016,1.545,3.281,1.336c2.899-0.481,4.432-3.404,6.08-5.537
	c3.838-4.975,8.947-11.085,15.685-10.4c5.47,0.557,10.525,0.9,16.032,0.17c5.475-0.726,11.149-2.336,16.599-2.891
	c5.009-0.51,9.962,3.334,15.321,3.114c2.034-0.083,4.07-0.42,5.95-1.223c2.269-0.97,4.199-3.159,6.502-3.903
	c3.801-1.231,6.045,0.591,9.394,1.397c2.508,0.603,5.142,0.525,7.695,0.3c5.763-0.509,10.891-2.516,16.653-2.471
	c1.386,1.367,4.2,0.965,4.078-1.486c-0.018-0.338-0.034-0.675-0.051-1.014c-0.059-1.199-0.76-2.04-1.86-2.442
	c-5.454-1.992-10.164,0.499-15.503,1.721c-3.829,0.877-7.989,1.273-11.671-0.173c-1.714-0.673-3.08-1.755-4.99-1.824
	c-5.434-0.197-8.765,5.531-13.819,6.604c-6.485,1.379-11.265-4.347-17.393-3.691c-2.396,0.256-4.762,1.294-7.133,1.742
	c-3.552,0.67-7.267,0.717-10.862,1.038c-5.826,0.521-11.155-0.521-16.89-0.614c-4.569-0.072-7.778,1.996-11.011,5.054
	c-2.067,1.954-4.252,3.941-6.067,6.127c-0.544,0.654-1.611,2.732-2.532,3.892c-3.677-4.396-9.441-5.603-14.87-7.604
	c-3.816-1.406-8.225-2.712-11.65-4.93c-1.613-1.045-2.897-2.708-3.704-4.455c-0.164-0.356-0.362-0.94-0.534-1.634
	c3.463-2.327,6.42-5.223,6.733-8.99c0.096-1.14-0.858-2.093-1.849-2.429c-6.587-2.24-10.07,3.426-10.209,9.158
	c-1.747,0.996-3.383,1.824-4.294,2.353c-5.599,3.248-11.733,5.791-17.129,9.355c-0.404,0.266-0.805,0.547-1.206,0.835
	c-2.261-0.745-4.31,0.499-5.973,2.14c-3.234-3.236-3.075-10.611-3.912-14.581c-0.579-2.753-4.67-1.563-4.184,1.154
	c1.072,6.012,0.567,15.041,6.658,18.488c-2.949,3.98-4.793,8.66-4.292,13.658c0.124,1.227,0.99,2.447,2.376,2.376
	c7.2-0.365,11.017-8.727,12.541-14.949c0.401-1.636,0.531-3.515-0.015-5.114c5.528-3.621,12.071-6.322,16.466-8.754
	C198.056,351.03,199.347,350.364,200.693,349.638z M173.641,368.591c-0.749,1.856-1.699,4.753-3.535,6.219
	c0.155-3.647,1.799-6.739,4.267-9.41C174.189,366.73,173.696,368.457,173.641,368.591z"/>
<path d="M352.591,447.263c-8.189-2.545-16.867-2.402-24.443,2.218c-5.051,3.082-8.675,6.918-15.084,6.971
	c-6.163,0.052-9.511-5.518-13.216-9.507c-6.539-7.039-12.876-1.824-19.598,2.272c-2.583,1.574-6.087,4.193-9.151,4.347
	c-4.224,0.212-5.186-2.478-7.917-4.671c-2.257-1.812-5.3-2.92-8.191-3.087c-3.881-0.223-7.541,1.798-11.024,3.306
	c-5.627,2.437-10.786,4.725-17.004,4.963c-10.721,0.409-20.036,3.547-30.083,7.157c-0.211,0.076-0.439,0.163-0.679,0.255
	c3.186-2.592,4.727-7.158,4.715-11.347c-0.005-2.011-2.849-1.913-3.058,0c-0.725,6.643-5.955,8.737-11.666,7.979
	c-2.319-0.308-4.9-0.625-7.161,0.202c-3.536,1.293-4.494,4.431-2.209,7.446c3.452,4.551,9.611,4.013,14.502,2.694
	c8.355-2.253,16.12-6.322,24.571-8.327c8.638-2.049,16.851-1.463,25.26-4.831c3.895-1.56,8.764-4.756,13.04-4.78
	c4.932-0.028,6.793,4.054,10.293,6.485c5.508,3.825,11.282,0.814,16.384-2.296c4.527-2.761,10.163-8.817,15.371-4.595
	c2.973,2.409,4.867,6.1,8.025,8.499c5.446,4.136,13.234,3.397,19.145,0.441c4.585-2.294,7.64-5.989,12.795-7.389
	c5.401-1.467,10.409-1.546,15.935-1.113C354.091,450.709,354.334,447.805,352.591,447.263z M183.367,464.142
	c-4.318-2.27,2.697-0.968,3.204-0.91c1.433,0.164,2.784,0.427,4.229,0.341C188.04,464.5,185.178,465.094,183.367,464.142z"/>
<path d="M91.645,51.211c-0.581,5.92-9.92,7.784-8.538,14.273c0.249,1.172,1.647,1.276,2.431,0.641
	c2.276-1.841,4.393-4.509,6.324-6.754c2.045-2.377,3.371-4.945,3.185-8.162C94.919,48.998,91.857,49.051,91.645,51.211z"/>
<path d="M84.121,82.661c0.165,0.035,0.337,0.053,0.506,0.068c0.654,0.058,1.323-0.404,1.642-0.942
	c1.065-1.793,1.736-3.733,2.969-5.439c1.251-1.731,2.769-3.265,4.222-4.823c1.711-1.832-0.937-4.494-2.755-2.755
	c-3.183,3.045-8.25,7.178-7.981,12.056C82.768,81.627,83.28,82.48,84.121,82.661z"/>
<path d="M92.186,82.772c0.086,1.884-2.07,3.725-3.344,4.844C87.265,89,85.143,89.9,83.695,91.357
	c-1.166,1.174-0.309,3.267,1.353,3.267c2.781-0.001,5.355-3.232,6.835-5.262c1.381-1.896,3.055-4.432,2.579-6.897
	C94.215,81.184,92.127,81.473,92.186,82.772z"/>
<path d="M84.042,111.909c3.072-1.399,4.261-5.769,6.452-8.208c1.99-2.213,3.559-4.295,2.92-7.408
	c-0.318-1.55-2.705-1.161-2.712,0.367c-0.011,2.837-3.195,4.302-4.877,6.181c-1.741,1.944-3.351,4.795-4.102,7.287
	C81.293,111.558,82.864,112.444,84.042,111.909z"/>
<path d="M90.549,115.324c-2.277,1.93-3.523,4.516-5.413,6.755c-1.468,1.738-4.076,4.793-2.33,7.137
	c0.819,1.1,2.025,1.254,3.098,0.399c0.755-0.601,1.047-1.529,1.589-2.312c0.698-1.006,1.442-1.983,2.13-2.997
	c1.372-2.021,2.203-4.175,3.994-5.913C95.649,116.42,92.651,113.543,90.549,115.324z"/>
<g>
</g>
<g>
</g>
<g>
</g>
<g>
</g>
<g>
</g>
<g>
</g>
<g>
</g>
<g>
</g>
<g>
</g>
<g>
</g>
<g>
</g>
<g>
</g>
<g>
</g>
<g>
</g>
<g>
</g>
</svg>
